<mxfile host="65bd71144e">
    <diagram id="yrFKpJYf7vNWSQ8hbHw7" name="ページ1">
        <mxGraphModel dx="1799" dy="2268" grid="1" gridSize="10" guides="1" tooltips="1" connect="1" arrows="1" fold="1" page="1" pageScale="1" pageWidth="827" pageHeight="1169" math="0" shadow="0">
            <root>
                <mxCell id="0"/>
                <mxCell id="1" parent="0"/>
                <mxCell id="2" value="TODO&lt;br&gt;アプリケーション" style="html=1;fillColor=none;verticalAlign=top;" parent="1" vertex="1">
                    <mxGeometry x="180" y="-100" width="980" height="800" as="geometry"/>
                </mxCell>
                <mxCell id="3" value="ユーザー" style="shape=umlActor;verticalLabelPosition=bottom;verticalAlign=top;html=1;fillColor=default;" parent="1" vertex="1">
                    <mxGeometry x="80" y="285" width="30" height="60" as="geometry"/>
                </mxCell>
                <mxCell id="4" value="TODO管理" style="ellipse;whiteSpace=wrap;html=1;fillColor=default;" parent="1" vertex="1">
                    <mxGeometry x="280" y="280" width="140" height="70" as="geometry"/>
                </mxCell>
                <mxCell id="7" value="自分の&lt;br&gt;TODOを閲覧・取得" style="ellipse;whiteSpace=wrap;html=1;fillColor=default;" parent="1" vertex="1">
                    <mxGeometry x="280" y="420" width="140" height="70" as="geometry"/>
                </mxCell>
                <mxCell id="8" value="ユーザー登録・&lt;br&gt;ログインする" style="ellipse;whiteSpace=wrap;html=1;fillColor=default;" parent="1" vertex="1">
                    <mxGeometry x="280" y="160" width="140" height="70" as="geometry"/>
                </mxCell>
                <mxCell id="9" value="更新" style="ellipse;whiteSpace=wrap;html=1;fillColor=default;" parent="1" vertex="1">
                    <mxGeometry x="560" y="240" width="140" height="70" as="geometry"/>
                </mxCell>
                <mxCell id="10" value="並び替え、検索、&lt;br&gt;フィルタリング" style="ellipse;whiteSpace=wrap;html=1;fillColor=default;" parent="1" vertex="1">
                    <mxGeometry x="560" y="420" width="140" height="70" as="geometry"/>
                </mxCell>
                <mxCell id="12" value="Extends" style="endArrow=block;endSize=16;endFill=0;html=1;" parent="1" source="9" target="4" edge="1">
                    <mxGeometry width="160" relative="1" as="geometry">
                        <mxPoint x="330" y="260" as="sourcePoint"/>
                        <mxPoint x="490" y="260" as="targetPoint"/>
                    </mxGeometry>
                </mxCell>
                <mxCell id="13" value="Extends" style="endArrow=block;endSize=16;endFill=0;html=1;entryX=1;entryY=0.5;entryDx=0;entryDy=0;" parent="1" source="10" target="7" edge="1">
                    <mxGeometry width="160" relative="1" as="geometry">
                        <mxPoint x="560.0479616363234" y="288.704591882154" as="sourcePoint"/>
                        <mxPoint x="449.94406711052443" y="286.3988813422103" as="targetPoint"/>
                    </mxGeometry>
                </mxCell>
                <mxCell id="15" value="" style="endArrow=none;html=1;" parent="1" source="3" target="8" edge="1">
                    <mxGeometry relative="1" as="geometry">
                        <mxPoint x="330" y="310" as="sourcePoint"/>
                        <mxPoint x="490" y="310" as="targetPoint"/>
                    </mxGeometry>
                </mxCell>
                <mxCell id="18" value="" style="endArrow=none;html=1;" parent="1" source="3" target="4" edge="1">
                    <mxGeometry relative="1" as="geometry">
                        <mxPoint x="140" y="273.57142857142844" as="sourcePoint"/>
                        <mxPoint x="316.8520378344292" y="197.77769807095865" as="targetPoint"/>
                    </mxGeometry>
                </mxCell>
                <mxCell id="19" value="" style="endArrow=none;html=1;" parent="1" source="3" target="7" edge="1">
                    <mxGeometry relative="1" as="geometry">
                        <mxPoint x="140" y="280.29411764705867" as="sourcePoint"/>
                        <mxPoint x="310.0537634487923" y="283.62850516566266" as="targetPoint"/>
                    </mxGeometry>
                </mxCell>
                <mxCell id="22" value="今回のスコープ" style="html=1;fillColor=none;verticalAlign=top;strokeColor=#FF6666;strokeWidth=4;fontColor=#FF6666;fontStyle=1" parent="1" vertex="1">
                    <mxGeometry x="1210" y="-10" width="680" height="560" as="geometry"/>
                </mxCell>
                <mxCell id="25" value="削除" style="ellipse;whiteSpace=wrap;html=1;fillColor=default;" vertex="1" parent="1">
                    <mxGeometry x="560" y="320" width="140" height="70" as="geometry"/>
                </mxCell>
                <mxCell id="26" value="Extends" style="endArrow=block;endSize=16;endFill=0;html=1;entryX=1.004;entryY=0.642;entryDx=0;entryDy=0;entryPerimeter=0;" edge="1" parent="1" source="25" target="4">
                    <mxGeometry width="160" relative="1" as="geometry">
                        <mxPoint x="340" y="270" as="sourcePoint"/>
                        <mxPoint x="430" y="324.9999999999998" as="targetPoint"/>
                    </mxGeometry>
                </mxCell>
                <mxCell id="27" value="追加" style="ellipse;whiteSpace=wrap;html=1;fillColor=default;" vertex="1" parent="1">
                    <mxGeometry x="560" y="160" width="140" height="70" as="geometry"/>
                </mxCell>
                <mxCell id="28" value="Extends" style="endArrow=block;endSize=16;endFill=0;html=1;" edge="1" parent="1" source="27" target="4">
                    <mxGeometry width="160" relative="1" as="geometry">
                        <mxPoint x="330" y="200" as="sourcePoint"/>
                        <mxPoint x="420" y="254.99999999999977" as="targetPoint"/>
                    </mxGeometry>
                </mxCell>
                <mxCell id="29" value="CSVインポート" style="ellipse;whiteSpace=wrap;html=1;fillColor=default;" vertex="1" parent="1">
                    <mxGeometry x="830" y="160" width="140" height="70" as="geometry"/>
                </mxCell>
                <mxCell id="30" value="Extends" style="endArrow=block;endSize=16;endFill=0;html=1;" edge="1" parent="1" source="29">
                    <mxGeometry width="160" relative="1" as="geometry">
                        <mxPoint x="610" y="140" as="sourcePoint"/>
                        <mxPoint x="700" y="194.99999999999977" as="targetPoint"/>
                    </mxGeometry>
                </mxCell>
                <mxCell id="34" value="メールアドレス・&lt;br&gt;パスワード" style="ellipse;whiteSpace=wrap;html=1;fillColor=default;" vertex="1" parent="1">
                    <mxGeometry x="560" y="-20" width="140" height="70" as="geometry"/>
                </mxCell>
                <mxCell id="35" value="Extends" style="endArrow=block;endSize=16;endFill=0;html=1;entryX=1;entryY=0;entryDx=0;entryDy=0;" edge="1" parent="1" source="34" target="8">
                    <mxGeometry width="160" relative="1" as="geometry">
                        <mxPoint x="260" as="sourcePoint"/>
                        <mxPoint x="330" y="109.99999999999955" as="targetPoint"/>
                    </mxGeometry>
                </mxCell>
                <mxCell id="36" value="SSO" style="ellipse;whiteSpace=wrap;html=1;fillColor=default;" vertex="1" parent="1">
                    <mxGeometry x="560" y="70" width="140" height="70" as="geometry"/>
                </mxCell>
                <mxCell id="37" value="Extends" style="endArrow=block;endSize=16;endFill=0;html=1;entryX=1.015;entryY=0.349;entryDx=0;entryDy=0;entryPerimeter=0;" edge="1" parent="1" source="36" target="8">
                    <mxGeometry width="160" relative="1" as="geometry">
                        <mxPoint x="324" y="30" as="sourcePoint"/>
                        <mxPoint x="414" y="189.99999999999955" as="targetPoint"/>
                    </mxGeometry>
                </mxCell>
                <mxCell id="38" value="CSVエクスポート" style="ellipse;whiteSpace=wrap;html=1;fillColor=default;" vertex="1" parent="1">
                    <mxGeometry x="560" y="530" width="140" height="70" as="geometry"/>
                </mxCell>
                <mxCell id="39" value="Extends" style="endArrow=block;endSize=16;endFill=0;html=1;entryX=0.929;entryY=0.857;entryDx=0;entryDy=0;entryPerimeter=0;" edge="1" parent="1" source="38" target="7">
                    <mxGeometry width="160" relative="1" as="geometry">
                        <mxPoint x="560.0479616363234" y="398.704591882154" as="sourcePoint"/>
                        <mxPoint x="420" y="565" as="targetPoint"/>
                    </mxGeometry>
                </mxCell>
            </root>
        </mxGraphModel>
    </diagram>
</mxfile>
